<svg xmlns:xlink="http://www.w3.org/1999/xlink" width="29.905ex" height="6.176ex" style="vertical-align: -2.671ex;" viewBox="0 -1508.9 12875.7 2659.1" role="img" focusable="false" xmlns="http://www.w3.org/2000/svg" aria-labelledby="MathJax-SVG-1-Title">
<title id="MathJax-SVG-1-Title">Equation</title>
<defs aria-hidden="true">
<path stroke-width="1" id="E1-MJMAIN-2202" d="M202 508Q179 508 169 520T158 547Q158 557 164 577T185 624T230 675T301 710L333 715H345Q378 715 384 714Q447 703 489 661T549 568T566 457Q566 362 519 240T402 53Q321 -22 223 -22Q123 -22 73 56Q42 102 42 148V159Q42 276 129 370T322 465Q383 465 414 434T455 367L458 378Q478 461 478 515Q478 603 437 639T344 676Q266 676 223 612Q264 606 264 572Q264 547 246 528T202 508ZM430 306Q430 372 401 400T333 428Q270 428 222 382Q197 354 183 323T150 221Q132 149 132 116Q132 21 232 21Q244 21 250 22Q327 35 374 112Q389 137 409 196T430 306Z"></path>
<path stroke-width="1" id="E1-MJMATHI-4A" d="M447 625Q447 637 354 637H329Q323 642 323 645T325 664Q329 677 335 683H352Q393 681 498 681Q541 681 568 681T605 682T619 682Q633 682 633 672Q633 670 630 658Q626 642 623 640T604 637Q552 637 545 623Q541 610 483 376Q420 128 419 127Q397 64 333 21T195 -22Q137 -22 97 8T57 88Q57 130 80 152T132 174Q177 174 182 130Q182 98 164 80T123 56Q115 54 115 53T122 44Q148 15 197 15Q235 15 271 47T324 130Q328 142 387 380T447 625Z"></path>
<path stroke-width="1" id="E1-MJMATHI-4C" d="M228 637Q194 637 192 641Q191 643 191 649Q191 673 202 682Q204 683 217 683Q271 680 344 680Q485 680 506 683H518Q524 677 524 674T522 656Q517 641 513 637H475Q406 636 394 628Q387 624 380 600T313 336Q297 271 279 198T252 88L243 52Q243 48 252 48T311 46H328Q360 46 379 47T428 54T478 72T522 106T564 161Q580 191 594 228T611 270Q616 273 628 273H641Q647 264 647 262T627 203T583 83T557 9Q555 4 553 3T537 0T494 -1Q483 -1 418 -1T294 0H116Q32 0 32 10Q32 17 34 24Q39 43 44 45Q48 46 59 46H65Q92 46 125 49Q139 52 144 61Q147 65 216 339T285 628Q285 635 228 637Z"></path>
<path stroke-width="1" id="E1-MJMAIN-31" d="M213 578L200 573Q186 568 160 563T102 556H83V602H102Q149 604 189 617T245 641T273 663Q275 666 285 666Q294 666 302 660V361L303 61Q310 54 315 52T339 48T401 46H427V0H416Q395 3 257 3Q121 3 100 0H88V46H114Q136 46 152 46T177 47T193 50T201 52T207 57T213 61V578Z"></path>
<path stroke-width="1" id="E1-MJMATHI-77" d="M580 385Q580 406 599 424T641 443Q659 443 674 425T690 368Q690 339 671 253Q656 197 644 161T609 80T554 12T482 -11Q438 -11 404 5T355 48Q354 47 352 44Q311 -11 252 -11Q226 -11 202 -5T155 14T118 53T104 116Q104 170 138 262T173 379Q173 380 173 381Q173 390 173 393T169 400T158 404H154Q131 404 112 385T82 344T65 302T57 280Q55 278 41 278H27Q21 284 21 287Q21 293 29 315T52 366T96 418T161 441Q204 441 227 416T250 358Q250 340 217 250T184 111Q184 65 205 46T258 26Q301 26 334 87L339 96V119Q339 122 339 128T340 136T341 143T342 152T345 165T348 182T354 206T362 238T373 281Q402 395 406 404Q419 431 449 431Q468 431 475 421T483 402Q483 389 454 274T422 142Q420 131 420 107V100Q420 85 423 71T442 42T487 26Q558 26 600 148Q609 171 620 213T632 273Q632 306 619 325T593 357T580 385Z"></path>
<path stroke-width="1" id="E1-MJMATHI-69" d="M184 600Q184 624 203 642T247 661Q265 661 277 649T290 619Q290 596 270 577T226 557Q211 557 198 567T184 600ZM21 287Q21 295 30 318T54 369T98 420T158 442Q197 442 223 419T250 357Q250 340 236 301T196 196T154 83Q149 61 149 51Q149 26 166 26Q175 26 185 29T208 43T235 78T260 137Q263 149 265 151T282 153Q302 153 302 143Q302 135 293 112T268 61T223 11T161 -11Q129 -11 102 10T74 74Q74 91 79 106T122 220Q160 321 166 341T173 380Q173 404 156 404H154Q124 404 99 371T61 287Q60 286 59 284T58 281T56 279T53 278T49 278T41 278H27Q21 284 21 287Z"></path>
<path stroke-width="1" id="E1-MJMAIN-2C" d="M78 35T78 60T94 103T137 121Q165 121 187 96T210 8Q210 -27 201 -60T180 -117T154 -158T130 -185T117 -194Q113 -194 104 -185T95 -172Q95 -168 106 -156T131 -126T157 -76T173 -3V9L172 8Q170 7 167 6T161 3T152 1T140 0Q113 0 96 17Z"></path>
<path stroke-width="1" id="E1-MJMATHI-6A" d="M297 596Q297 627 318 644T361 661Q378 661 389 651T403 623Q403 595 384 576T340 557Q322 557 310 567T297 596ZM288 376Q288 405 262 405Q240 405 220 393T185 362T161 325T144 293L137 279Q135 278 121 278H107Q101 284 101 286T105 299Q126 348 164 391T252 441Q253 441 260 441T272 442Q296 441 316 432Q341 418 354 401T367 348V332L318 133Q267 -67 264 -75Q246 -125 194 -164T75 -204Q25 -204 7 -183T-12 -137Q-12 -110 7 -91T53 -71Q70 -71 82 -81T95 -112Q95 -148 63 -167Q69 -168 77 -168Q111 -168 139 -140T182 -74L193 -32Q204 11 219 72T251 197T278 308T289 365Q289 372 288 376Z"></path>
<path stroke-width="1" id="E1-MJMAIN-3D" d="M56 347Q56 360 70 367H707Q722 359 722 347Q722 336 708 328L390 327H72Q56 332 56 347ZM56 153Q56 168 72 173H708Q722 163 722 153Q722 140 707 133H70Q56 140 56 153Z"></path>
<path stroke-width="1" id="E1-MJMAIN-2B" d="M56 237T56 250T70 270H369V420L370 570Q380 583 389 583Q402 583 409 568V270H707Q722 262 722 250T707 230H409V-68Q401 -82 391 -82H389H387Q375 -82 369 -68V230H70Q56 237 56 250Z"></path>
<path stroke-width="1" id="E1-MJMATHI-3BB" d="M166 673Q166 685 183 694H202Q292 691 316 644Q322 629 373 486T474 207T524 67Q531 47 537 34T546 15T551 6T555 2T556 -2T550 -11H482Q457 3 450 18T399 152L354 277L340 262Q327 246 293 207T236 141Q211 112 174 69Q123 9 111 -1T83 -12Q47 -12 47 20Q47 37 61 52T199 187Q229 216 266 252T321 306L338 322Q338 323 288 462T234 612Q214 657 183 657Q166 657 166 673Z"></path>
<path stroke-width="1" id="E1-MJMAIN-22C5" d="M78 250Q78 274 95 292T138 310Q162 310 180 294T199 251Q199 226 182 208T139 190T96 207T78 250Z"></path>
<path stroke-width="1" id="E1-MJMAIN-73" d="M295 316Q295 356 268 385T190 414Q154 414 128 401Q98 382 98 349Q97 344 98 336T114 312T157 287Q175 282 201 278T245 269T277 256Q294 248 310 236T342 195T359 133Q359 71 321 31T198 -10H190Q138 -10 94 26L86 19L77 10Q71 4 65 -1L54 -11H46H42Q39 -11 33 -5V74V132Q33 153 35 157T45 162H54Q66 162 70 158T75 146T82 119T101 77Q136 26 198 26Q295 26 295 104Q295 133 277 151Q257 175 194 187T111 210Q75 227 54 256T33 318Q33 357 50 384T93 424T143 442T187 447H198Q238 447 268 432L283 424L292 431Q302 440 314 448H322H326Q329 448 335 442V310L329 304H301Q295 310 295 316Z"></path>
<path stroke-width="1" id="E1-MJMAIN-69" d="M69 609Q69 637 87 653T131 669Q154 667 171 652T188 609Q188 579 171 564T129 549Q104 549 87 564T69 609ZM247 0Q232 3 143 3Q132 3 106 3T56 1L34 0H26V46H42Q70 46 91 49Q100 53 102 60T104 102V205V293Q104 345 102 359T88 378Q74 385 41 385H30V408Q30 431 32 431L42 432Q52 433 70 434T106 436Q123 437 142 438T171 441T182 442H185V62Q190 52 197 50T232 46H255V0H247Z"></path>
<path stroke-width="1" id="E1-MJMAIN-67" d="M329 409Q373 453 429 453Q459 453 472 434T485 396Q485 382 476 371T449 360Q416 360 412 390Q410 404 415 411Q415 412 416 414V415Q388 412 363 393Q355 388 355 386Q355 385 359 381T368 369T379 351T388 325T392 292Q392 230 343 187T222 143Q172 143 123 171Q112 153 112 133Q112 98 138 81Q147 75 155 75T227 73Q311 72 335 67Q396 58 431 26Q470 -13 470 -72Q470 -139 392 -175Q332 -206 250 -206Q167 -206 107 -175Q29 -140 29 -75Q29 -39 50 -15T92 18L103 24Q67 55 67 108Q67 155 96 193Q52 237 52 292Q52 355 102 398T223 442Q274 442 318 416L329 409ZM299 343Q294 371 273 387T221 404Q192 404 171 388T145 343Q142 326 142 292Q142 248 149 227T179 192Q196 182 222 182Q244 182 260 189T283 207T294 227T299 242Q302 258 302 292T299 343ZM403 -75Q403 -50 389 -34T348 -11T299 -2T245 0H218Q151 0 138 -6Q118 -15 107 -34T95 -74Q95 -84 101 -97T122 -127T170 -155T250 -167Q319 -167 361 -139T403 -75Z"></path>
<path stroke-width="1" id="E1-MJMAIN-6E" d="M41 46H55Q94 46 102 60V68Q102 77 102 91T102 122T103 161T103 203Q103 234 103 269T102 328V351Q99 370 88 376T43 385H25V408Q25 431 27 431L37 432Q47 433 65 434T102 436Q119 437 138 438T167 441T178 442H181V402Q181 364 182 364T187 369T199 384T218 402T247 421T285 437Q305 442 336 442Q450 438 463 329Q464 322 464 190V104Q464 66 466 59T477 49Q498 46 526 46H542V0H534L510 1Q487 2 460 2T422 3Q319 3 310 0H302V46H318Q379 46 379 62Q380 64 380 200Q379 335 378 343Q372 371 358 385T334 402T308 404Q263 404 229 370Q202 343 195 315T187 232V168V108Q187 78 188 68T191 55T200 49Q221 46 249 46H265V0H257L234 1Q210 2 183 2T145 3Q42 3 33 0H25V46H41Z"></path>
<path stroke-width="1" id="E1-MJMAIN-28" d="M94 250Q94 319 104 381T127 488T164 576T202 643T244 695T277 729T302 750H315H319Q333 750 333 741Q333 738 316 720T275 667T226 581T184 443T167 250T184 58T225 -81T274 -167T316 -220T333 -241Q333 -250 318 -250H315H302L274 -226Q180 -141 137 -14T94 250Z"></path>
<path stroke-width="1" id="E1-MJMAIN-29" d="M60 749L64 750Q69 750 74 750H86L114 726Q208 641 251 514T294 250Q294 182 284 119T261 12T224 -76T186 -143T145 -194T113 -227T90 -246Q87 -249 86 -250H74Q66 -250 63 -250T58 -247T55 -238Q56 -237 66 -225Q221 -64 221 250T66 725Q56 737 55 738Q55 746 60 749Z"></path>
</defs>
<g stroke="currentColor" fill="currentColor" stroke-width="0" transform="matrix(1 0 0 -1 0 0)" aria-hidden="true">
<g transform="translate(120,0)">
<rect stroke="none" width="2236" height="60" x="0" y="220"></rect>
<g transform="translate(89,676)">
 <use xlink:href="#E1-MJMAIN-2202" x="0" y="0"></use>
<g transform="translate(567,0)">
 <use xlink:href="#E1-MJMATHI-4A" x="0" y="0"></use>
<g transform="translate(555,-150)">
 <use transform="scale(0.707)" xlink:href="#E1-MJMATHI-4C" x="0" y="0"></use>
 <use transform="scale(0.707)" xlink:href="#E1-MJMAIN-31" x="681" y="0"></use>
</g>
</g>
</g>
<g transform="translate(60,-736)">
 <use xlink:href="#E1-MJMAIN-2202" x="0" y="0"></use>
<g transform="translate(567,0)">
 <use xlink:href="#E1-MJMATHI-77" x="0" y="0"></use>
<g transform="translate(716,-150)">
 <use transform="scale(0.707)" xlink:href="#E1-MJMATHI-69" x="0" y="0"></use>
 <use transform="scale(0.707)" xlink:href="#E1-MJMAIN-2C" x="345" y="0"></use>
 <use transform="scale(0.707)" xlink:href="#E1-MJMATHI-6A" x="624" y="0"></use>
</g>
</g>
</g>
</g>
 <use xlink:href="#E1-MJMAIN-3D" x="2754" y="0"></use>
<g transform="translate(3533,0)">
<g transform="translate(397,0)">
<rect stroke="none" width="2236" height="60" x="0" y="220"></rect>
<g transform="translate(517,676)">
 <use xlink:href="#E1-MJMAIN-2202" x="0" y="0"></use>
 <use xlink:href="#E1-MJMATHI-4A" x="567" y="0"></use>
</g>
<g transform="translate(60,-736)">
 <use xlink:href="#E1-MJMAIN-2202" x="0" y="0"></use>
<g transform="translate(567,0)">
 <use xlink:href="#E1-MJMATHI-77" x="0" y="0"></use>
<g transform="translate(716,-150)">
 <use transform="scale(0.707)" xlink:href="#E1-MJMATHI-69" x="0" y="0"></use>
 <use transform="scale(0.707)" xlink:href="#E1-MJMAIN-2C" x="345" y="0"></use>
 <use transform="scale(0.707)" xlink:href="#E1-MJMATHI-6A" x="624" y="0"></use>
</g>
</g>
</g>
</g>
</g>
 <use xlink:href="#E1-MJMAIN-2B" x="6510" y="0"></use>
 <use xlink:href="#E1-MJMATHI-3BB" x="7510" y="0"></use>
 <use xlink:href="#E1-MJMAIN-22C5" x="8316" y="0"></use>
<g transform="translate(8817,0)">
 <use xlink:href="#E1-MJMAIN-73"></use>
 <use xlink:href="#E1-MJMAIN-69" x="394" y="0"></use>
 <use xlink:href="#E1-MJMAIN-67" x="673" y="0"></use>
 <use xlink:href="#E1-MJMAIN-6E" x="1173" y="0"></use>
</g>
 <use xlink:href="#E1-MJMAIN-28" x="10547" y="0"></use>
<g transform="translate(10936,0)">
 <use xlink:href="#E1-MJMATHI-77" x="0" y="0"></use>
<g transform="translate(716,-150)">
 <use transform="scale(0.707)" xlink:href="#E1-MJMATHI-69" x="0" y="0"></use>
 <use transform="scale(0.707)" xlink:href="#E1-MJMAIN-2C" x="345" y="0"></use>
 <use transform="scale(0.707)" xlink:href="#E1-MJMATHI-6A" x="624" y="0"></use>
</g>
</g>
 <use xlink:href="#E1-MJMAIN-29" x="12486" y="0"></use>
</g>
</svg>